PathFileType	4	(X/Y/Z)	/Users/niels/Desktop/University/Third Semester/Perception and Action/Exam/Gymnastics Motion Tracking/Code for Gym Tracking/Analyzed Data/Webcam_Backflip/id1_5_trajectory_Sports2D/id1_5_trajectory_Sports2D_px_person00.trc
DataRate	CameraRate	NumFrames	NumMarkers	Units	OrigDataRate	OrigDataStartFrame	OrigNumFrames
29.71698113207547	29.71698113207547	9	22	m	29.71698113207547	66	106
Frame#	Time	Hip			RHip			RKnee			RAnkle			RBigToe			RSmallToe			RHeel			LHip			LKnee			LAnkle			LBigToe			LSmallToe			LHeel			Neck			Head			Nose			RShoulder			RElbow			RWrist			LShoulder			LElbow			LWrist		
		X1	Y1	Z1	X2	Y2	Z2	X3	Y3	Z3	X4	Y4	Z4	X5	Y5	Z5	X6	Y6	Z6	X7	Y7	Z7	X8	Y8	Z8	X9	Y9	Z9	X10	Y10	Z10	X11	Y11	Z11	X12	Y12	Z12	X13	Y13	Z13	X14	Y14	Z14	X15	Y15	Z15	X16	Y16	Z16	X17	Y17	Z17	X18	Y18	Z18	X19	Y19	Z19	X20	Y20	Z20	X21	Y21	Z21	X22	Y22	Z22
66	2.220952380952381	0.9733663993344734	-0.36094795439260713	0.0	0.9712165054178628	-0.3532453173022715	0.0	0.952441976150767	-0.23125535962136168	0.0	0.9962152713505901	-0.13395536940519767	0.0	0.9604299861787898	-0.0909176775571862	0.0	0.9689342720625229	-0.09662665662441985	0.0	1.0086963559143058	-0.12635525149244625	0.0	0.9726815199049361	-0.3621558219621879	0.0	0.951804477461692	-0.23838511873362658	0.0	0.994702557927831	-0.14442863738769593	0.0	0.9600859184256896	-0.10273883445552831	0.0	0.9668856050926853	-0.109530144873921	0.0	1.0136670515613182	-0.12912861633036674	0.0	0.8251503923477291	-0.3804658550513786	0.0	0.7567822832847844	-0.39974625871985064	0.0	0.7797875906205189	-0.36031321282723217	0.0	0.8302384371681795	-0.36246996969222883	0.0	0.9068856805010911	-0.32369861920553694	0.0	0.933213171811074	-0.25406019489840603	0.0	0.8437160901745078	-0.3864253210627684	0.0	0.909972204151931	-0.34413588674524026	0.0	0.937805057721473	-0.28366221883774745	0.0
67	2.2546031746031745	0.9803617250069042	-0.3396101764978542	0.0	0.9773605768398506	-0.33169665588852415	0.0	0.9244535674030502	-0.22539418685001708	0.0	0.9348731836351608	-0.1155013228273999	0.0	0.8880490797832774	-0.08690187183700232	0.0	0.8957336780053275	-0.08994348247913284	0.0	0.9425699062931342	-0.10414642596467201	0.0	0.9791818602312781	-0.34066603818001057	0.0	0.9275731151364719	-0.23003027697458736	0.0	0.937969680511958	-0.1263950053652687	0.0	0.8847008316774825	-0.0975556763693316	0.0	0.8921175741668264	-0.1067525362604384	0.0	0.9510820652661255	-0.1055880585265852	0.0	0.8405438091415459	-0.39482576050492474	0.0	0.7809568254823948	-0.42615041337625503	0.0	0.7937017981394274	-0.38436563011571356	0.0	0.8458823815299434	-0.3727164077983464	0.0	0.9140936059047902	-0.3219220585299625	0.0	0.9254181487644688	-0.2558899365713844	0.0	0.860402425472103	-0.3978320599923194	0.0	0.9150115131755505	-0.34800770283342675	0.0	0.9263372909980092	-0.295354144484973	0.0
68	2.2882539682539678	0.9838792487237086	-0.318668775026726	0.0	0.9795489029065302	-0.31140198523159385	0.0	0.8980964320621766	-0.23005946770778885	0.0	0.8741550888686823	-0.12198135666459939	0.0	0.8229303164012469	-0.11049218493847561	0.0	0.8289568199709948	-0.11062160728518987	0.0	0.8763755777599188	-0.1083688560372872	0.0	0.9826553529675001	-0.32002665193219876	0.0	0.9069615994358775	-0.23063623355431245	0.0	0.885948276241165	-0.13088772613910635	0.0	0.8175912381922185	-0.1177375498428784	0.0	0.8256779180564116	-0.12971972857769318	0.0	0.8926379478905584	-0.10734963266033537	0.0	0.8617660356506351	-0.4095950286005075	0.0	0.8133328434106873	-0.4540259013764018	0.0	0.8154232239470227	-0.4119107588205743	0.0	0.864175852632655	-0.38362573073212086	0.0	0.918409220932986	-0.31844250463148355	0.0	0.9123971457069859	-0.2582497674728998	0.0	0.8831903500668421	-0.4087815058225757	0.0	0.9235044921158772	-0.350644242455979	0.0	0.9153634255328099	-0.30806036067658393	0.0
69	2.3219047619047615	0.9825886552036444	-0.3002897502290881	0.0	0.9766374824679842	-0.2945834210042082	0.0	0.8747636274423263	-0.2440529729734701	0.0	0.8197330319438186	-0.14956400422531566	0.0	0.770362662227021	-0.15646646914422174	0.0	0.7738858971594867	-0.15343937836575014	0.0	0.8165098142836028	-0.13502303926556972	0.0	0.9820619783372047	-0.3022981491940291	0.0	0.8911661673412725	-0.23897950283051084	0.0	0.8448988801345519	-0.1531423680857758	0.0	0.7647316787157373	-0.15764491219184998	0.0	0.7734856124398257	-0.17187941684125657	0.0	0.8456177583176058	-0.1299207478122353	0.0	0.8878830979839947	-0.4224981938905336	0.0	0.8535703435969514	-0.4796741375604409	0.0	0.8450238636426883	-0.439802200324088	0.0	0.8846079658576423	-0.3939223359135399	0.0	0.919345370085697	-0.3152211806586163	0.0	0.8964771551092099	-0.2638902361882088	0.0	0.9100771309417027	-0.41750195184984484	0.0	0.9353169175223067	-0.35054310633330354	0.0	0.9079970960613413	-0.32013243823430615	0.0
70	2.355555555555555	0.9763230605986624	-0.28663950387026355	0.0	0.9686348324419775	-0.2833382168694108	0.0	0.8555576293613015	-0.2661885442843461	0.0	0.7754613286720551	-0.19380968157709333	0.0	0.7331653886770915	-0.2190903350308997	0.0	0.7333427971281051	-0.2130908520540416	0.0	0.7670732619927334	-0.17955157358201096	0.0	0.9775410052112599	-0.28940264477070005	0.0	0.8808234049171874	-0.2542534311018469	0.0	0.8179746859861535	-0.18843680870851773	0.0	0.7288596886300004	-0.21180225594523402	0.0	0.7383254494237012	-0.22759132581592467	0.0	0.8134885312451735	-0.1678793593419601	0.0	0.9172691262130939	-0.4317490704243734	0.0	0.899853952825334	-0.4994440646677162	0.0	0.8813863941980239	-0.4641727532737626	0.0	0.9065861691025002	-0.40232879524147463	0.0	0.9172631732670706	-0.31456100688882954	0.0	0.8799926377472514	-0.2753491414883569	0.0	0.9388161440679786	-0.4228712501700756	0.0	0.9507276194338389	-0.34742538437720116	0.0	0.9070909023847549	-0.33196265975664924	0.0
71	2.389206349206349	0.9659456912580535	-0.2795633212235487	0.0	0.9565617032940658	-0.2792207724114039	0.0	0.8412464637954559	-0.29540888449261093	0.0	0.7436693961319816	-0.25069963496520703	0.0	0.7124226170606289	-0.292628462014506	0.0	0.7086159561486368	-0.2845136070885358	0.0	0.7305049210080875	-0.23785666349427864	0.0	0.9701066099742043	-0.28296056335244196	0.0	0.8754078928611425	-0.276588049122161	0.0	0.8041966235321749	-0.2342447592156528	0.0	0.7105833327025124	-0.2763581681421394	0.0	0.7208421754688762	-0.2932198459472716	0.0	0.7950290287149145	-0.21751492888034554	0.0	0.9477395867894576	-0.43647857850587435	0.0	0.948967192172955	-0.5107343986569182	0.0	0.9220795648504548	-0.48172039386692	0.0	0.9292261147103924	-0.40799424037926585	0.0	0.9130985123284457	-0.318405681389074	0.0	0.8647754922511548	-0.29433241463328513	0.0	0.967286211774529	-0.42447575396824466	0.0	0.9692855665930225	-0.34300889772427196	0.0	0.9136318392827831	-0.3450431625463308	0.0
72	2.4228571428571426	0.9528764594618402	-0.2803043033756663	0.0	0.9420904266030478	-0.2829281315537289	0.0	0.8321361246337831	-0.33066832431997	0.0	0.7255924867773066	-0.31667126104867993	0.0	0.7078160992570972	-0.37165571773301864	0.0	0.6998278069348071	-0.36273267925060815	0.0	0.70836537780259	-0.3063684944148344	0.0	0.960881648438561	-0.2841433714021787	0.0	0.8725495170310207	-0.3073411620765976	0.0	0.7982638802640732	-0.29098040775385636	0.0	0.7091292585015012	-0.3494254971143658	0.0	0.719881415306272	-0.3658684697373637	0.0	0.7846245325410882	-0.27859854679357127	0.0	0.9767061079526742	-0.4366963004112659	0.0	0.9970048619685512	-0.5126332366977482	0.0	0.9635990197662861	-0.49082536032596025	0.0	0.9512578597605996	-0.41092447462120957	0.0	0.9080094032462162	-0.32797364154911113	0.0	0.8521916478656041	-0.3213124848011327	0.0	0.9932295908911183	-0.4224979001261053	0.0	0.9881020605017383	-0.3401465212237993	0.0	0.9254655892699395	-0.35957252374233223	0.0
73	2.4565079365079363	0.9387310818943234	-0.2893797837045325	0.0	0.9271079749639539	-0.29438319178063665	0.0	0.8281190256319287	-0.37083109599791114	0.0	0.721426470136276	-0.38833405588402536	0.0	0.7177716746940384	-0.4514155957509323	0.0	0.7058806097444339	-0.4430169460097974	0.0	0.7012888302078161	-0.38166911940547105	0.0	0.9507445433892686	-0.29362436126039937	0.0	0.8695707472750911	-0.3478727155757509	0.0	0.7942228508690675	-0.3598476433451696	0.0	0.7224757956463922	-0.42874246188257364	0.0	0.7327583384134376	-0.441956495084819	0.0	0.7763757830002012	-0.3523228764352433	0.0	1.0014110421828717	-0.43321975606382646	0.0	1.040117751249702	-0.5058837870460762	0.0	1.0019070268263142	-0.4917548495270406	0.0	0.9708513123472141	-0.4118428979098758	0.0	0.9031187846999709	-0.3437316735147652	0.0	0.8434579031489613	-0.355586603123867	0.0	1.0142299887716208	-0.4178464429117726	0.0	1.0022851751542312	-0.34208811009573825	0.0	0.938431126634858	-0.37623544182118485	0.0
74	2.49015873015873	0.9251665581154986	-0.306658123281392	0.0	0.913351846238065	-0.3132963496955997	0.0	0.8288669991969743	-0.41472106874637005	0.0	0.7300912224027973	-0.46255592750502117	0.0	0.7397151145431743	-0.5283795937700394	0.0	0.7245649109607084	-0.5215854311827094	0.0	0.7084560009217	-0.4605119062638321	0.0	0.9406044659156214	-0.31158069516855896	0.0	0.8661606545979871	-0.39665701835170075	0.0	0.7910995145629119	-0.4386460293161252	0.0	0.7475005717547883	-0.5095349690663131	0.0	0.7559487787005253	-0.5174966074844882	0.0	0.7698115813474691	-0.4362379841421603	0.0	1.0193584012163168	-0.42772527199120786	0.0	1.074919784236356	-0.49229260278718495	0.0	1.0331532795286822	-0.48623581070806465	0.0	0.9857257534835111	-0.41182096320492173	0.0	0.89940434466829	-0.36547440273346193	0.0	0.8399193539710855	-0.39561055721591637	0.0	1.0283305882298357	-0.4123007538612048	0.0	1.0082812610312673	-0.35260123214742833	0.0	0.9493565644885814	-0.3990381823580981	0.0
